<?xml version="1.0" encoding="UTF-8"?>
<svg width="1440px" height="1024px" viewBox="0 0 1440 1024" version="1.1" xmlns="http://www.w3.org/2000/svg" xmlns:xlink="http://www.w3.org/1999/xlink">
    <!-- Generator: Sketch 58 (84663) - https://sketch.com -->
    <title>HomePage</title>
    <desc>Created with Sketch.</desc>
    <defs>
        <linearGradient x1="100%" y1="75.2839506%" x2="-25.1419144%" y2="10.7413452%" id="linearGradient-1">
            <stop stop-color="#1E81CE" offset="0%"></stop>
            <stop stop-color="#FF0C38" offset="100%"></stop>
            <stop stop-color="#EF4487" offset="100%"></stop>
        </linearGradient>
        <ellipse id="path-2" cx="1309.84778" cy="1101" rx="132.5" ry="88"></ellipse>
        <filter x="-15.3%" y="-11.6%" width="130.6%" height="146.0%" filterUnits="objectBoundingBox" id="filter-3">
            <feMorphology radius="4" operator="erode" in="SourceAlpha" result="shadowSpreadOuter1"></feMorphology>
            <feOffset dx="0" dy="20" in="shadowSpreadOuter1" result="shadowOffsetOuter1"></feOffset>
            <feGaussianBlur stdDeviation="14.5" in="shadowOffsetOuter1" result="shadowBlurOuter1"></feGaussianBlur>
            <feComposite in="shadowBlurOuter1" in2="SourceAlpha" operator="out" result="shadowBlurOuter1"></feComposite>
            <feColorMatrix values="0 0 0 0 0.154295143   0 0 0 0 0.122125439   0 0 0 0 0.160948822  0 0 0 0.5 0" type="matrix" in="shadowBlurOuter1"></feColorMatrix>
        </filter>
        <linearGradient x1="41.9110352%" y1="-26.6839227%" x2="100%" y2="66.0278406%" id="linearGradient-4">
            <stop stop-color="#FFFFFF" offset="0%"></stop>
            <stop stop-color="#969696" offset="100%"></stop>
        </linearGradient>
    </defs>
    <g id="HomePage" stroke="none" stroke-width="1" fill="none" fill-rule="evenodd">
        <rect id="Rectangle" fill="url(#linearGradient-1)" x="0" y="0" width="1440" height="1024"></rect>
        <g id="BackgroundDecoration" transform="translate(-154.347780, -198.000000)">
            <path d="M154.84778,26.5 L516.84778,422.5" id="Line" stroke="#FFFFFF" stroke-width="5" opacity="0.237211682" stroke-linecap="round"></path>
            <path d="M181.84778,26.5 L543.84778,422.5" id="Line" stroke="#FFFFFF" stroke-width="5" opacity="0.237211682" stroke-linecap="round"></path>
            <path d="M870.766044,1012 L566.34778,1453.80258" id="Line" stroke="#FFFFFF" stroke-width="5" opacity="0.237211682" stroke-linecap="round"></path>
            <path d="M876.839722,1038.30799 L572.421458,1480.11057" id="Line" stroke="#FFFFFF" stroke-width="5" opacity="0.237211682" stroke-linecap="round"></path>
            <path d="M887.766044,1007 L583.34778,1448.80258" id="Line" stroke="#FFFFFF" stroke-width="5" opacity="0.237211682" stroke-linecap="round"></path>
            <path d="M893.839722,1033.30799 L589.421458,1475.11057" id="Line" stroke="#FFFFFF" stroke-width="5" opacity="0.237211682" stroke-linecap="round"></path>
            <path d="M233.84778,52.5 L595.84778,448.5" id="Line" stroke="#FFFFFF" stroke-width="5" opacity="0.237211682" stroke-linecap="round"></path>
            <path d="M1438.5356,573.266328 L1710.292,1035.87681" id="Line" stroke="#FFFFFF" stroke-width="5" opacity="0.237211682" stroke-linecap="round"></path>
            <g id="cookierow" transform="translate(952.347780, 289.000000) rotate(-360.000000) translate(-952.347780, -289.000000) translate(893.347780, 277.000000)" fill="#FFFFFF" fill-rule="nonzero" opacity="0.711263021">
                <g id="cookie">
                    <path d="M23.8027132,13.5036735 C23.6361921,13.2783673 23.3864106,13.1314286 23.1121406,13.0971429 C19.5025522,12.6514286 16.7843411,9.6 16.7843411,5.99020408 C16.7843411,4.78040816 17.0977925,3.58040816 17.6904115,2.52244898 C17.8275465,2.28244898 17.8520349,1.99346939 17.7687743,1.72897959 C17.6855138,1.4644898 17.4896067,1.24897959 17.2398252,1.13142857 C15.6186939,0.382040816 13.8898137,0 12.0972637,0 C5.42662678,0 0,5.38285714 0,12 C0,18.6171429 5.42662678,24 12.1021614,24 C17.8912163,24 22.8868474,19.9102041 23.9839272,14.277551 C24.032904,14.0081633 23.9692342,13.7289796 23.8027132,13.5036735 Z M12.0972637,22.0016327 C6.5383996,22.0016327 2.01294549,17.515102 2.01294549,12 C2.01294549,6.48489796 6.5383996,1.99836735 12.0972637,1.99836735 C13.2482179,1.99836735 14.3697861,2.18938776 15.4374798,2.56163265 C14.9966888,3.64897959 14.766498,4.81469388 14.766498,5.99020408 C14.766498,10.2269388 17.7002069,13.8661224 21.7554839,14.875102 C20.4967808,19.0579592 16.5835364,22.0016327 12.0972637,22.0016327 Z" id="Shape"></path>
                    <circle id="Oval" cx="9" cy="7" r="1"></circle>
                    <circle id="Oval" cx="12" cy="11" r="1"></circle>
                    <circle id="Oval" cx="14" cy="16" r="1"></circle>
                    <circle id="Oval" cx="7" cy="14" r="1"></circle>
                </g>
                <g id="cookie" transform="translate(32.000000, 0.000000)">
                    <path d="M23.8027132,13.5036735 C23.6361921,13.2783673 23.3864106,13.1314286 23.1121406,13.0971429 C19.5025522,12.6514286 16.7843411,9.6 16.7843411,5.99020408 C16.7843411,4.78040816 17.0977925,3.58040816 17.6904115,2.52244898 C17.8275465,2.28244898 17.8520349,1.99346939 17.7687743,1.72897959 C17.6855138,1.4644898 17.4896067,1.24897959 17.2398252,1.13142857 C15.6186939,0.382040816 13.8898137,0 12.0972637,0 C5.42662678,0 0,5.38285714 0,12 C0,18.6171429 5.42662678,24 12.1021614,24 C17.8912163,24 22.8868474,19.9102041 23.9839272,14.277551 C24.032904,14.0081633 23.9692342,13.7289796 23.8027132,13.5036735 Z M12.0972637,22.0016327 C6.5383996,22.0016327 2.01294549,17.515102 2.01294549,12 C2.01294549,6.48489796 6.5383996,1.99836735 12.0972637,1.99836735 C13.2482179,1.99836735 14.3697861,2.18938776 15.4374798,2.56163265 C14.9966888,3.64897959 14.766498,4.81469388 14.766498,5.99020408 C14.766498,10.2269388 17.7002069,13.8661224 21.7554839,14.875102 C20.4967808,19.0579592 16.5835364,22.0016327 12.0972637,22.0016327 Z" id="Shape"></path>
                    <circle id="Oval" cx="9" cy="7" r="1"></circle>
                    <circle id="Oval" cx="12" cy="11" r="1"></circle>
                    <circle id="Oval" cx="14" cy="16" r="1"></circle>
                    <circle id="Oval" cx="7" cy="14" r="1"></circle>
                </g>
                <g id="cookie" transform="translate(63.000000, 0.000000)">
                    <path d="M23.8027132,13.5036735 C23.6361921,13.2783673 23.3864106,13.1314286 23.1121406,13.0971429 C19.5025522,12.6514286 16.7843411,9.6 16.7843411,5.99020408 C16.7843411,4.78040816 17.0977925,3.58040816 17.6904115,2.52244898 C17.8275465,2.28244898 17.8520349,1.99346939 17.7687743,1.72897959 C17.6855138,1.4644898 17.4896067,1.24897959 17.2398252,1.13142857 C15.6186939,0.382040816 13.8898137,0 12.0972637,0 C5.42662678,0 0,5.38285714 0,12 C0,18.6171429 5.42662678,24 12.1021614,24 C17.8912163,24 22.8868474,19.9102041 23.9839272,14.277551 C24.032904,14.0081633 23.9692342,13.7289796 23.8027132,13.5036735 Z M12.0972637,22.0016327 C6.5383996,22.0016327 2.01294549,17.515102 2.01294549,12 C2.01294549,6.48489796 6.5383996,1.99836735 12.0972637,1.99836735 C13.2482179,1.99836735 14.3697861,2.18938776 15.4374798,2.56163265 C14.9966888,3.64897959 14.766498,4.81469388 14.766498,5.99020408 C14.766498,10.2269388 17.7002069,13.8661224 21.7554839,14.875102 C20.4967808,19.0579592 16.5835364,22.0016327 12.0972637,22.0016327 Z" id="Shape"></path>
                    <circle id="Oval" cx="9" cy="7" r="1"></circle>
                    <circle id="Oval" cx="12" cy="11" r="1"></circle>
                    <circle id="Oval" cx="14" cy="16" r="1"></circle>
                    <circle id="Oval" cx="7" cy="14" r="1"></circle>
                </g>
                <g id="cookie" transform="translate(94.000000, 0.000000)">
                    <path d="M23.8027132,13.5036735 C23.6361921,13.2783673 23.3864106,13.1314286 23.1121406,13.0971429 C19.5025522,12.6514286 16.7843411,9.6 16.7843411,5.99020408 C16.7843411,4.78040816 17.0977925,3.58040816 17.6904115,2.52244898 C17.8275465,2.28244898 17.8520349,1.99346939 17.7687743,1.72897959 C17.6855138,1.4644898 17.4896067,1.24897959 17.2398252,1.13142857 C15.6186939,0.382040816 13.8898137,0 12.0972637,0 C5.42662678,0 0,5.38285714 0,12 C0,18.6171429 5.42662678,24 12.1021614,24 C17.8912163,24 22.8868474,19.9102041 23.9839272,14.277551 C24.032904,14.0081633 23.9692342,13.7289796 23.8027132,13.5036735 Z M12.0972637,22.0016327 C6.5383996,22.0016327 2.01294549,17.515102 2.01294549,12 C2.01294549,6.48489796 6.5383996,1.99836735 12.0972637,1.99836735 C13.2482179,1.99836735 14.3697861,2.18938776 15.4374798,2.56163265 C14.9966888,3.64897959 14.766498,4.81469388 14.766498,5.99020408 C14.766498,10.2269388 17.7002069,13.8661224 21.7554839,14.875102 C20.4967808,19.0579592 16.5835364,22.0016327 12.0972637,22.0016327 Z" id="Shape"></path>
                    <circle id="Oval" cx="9" cy="7" r="1"></circle>
                    <circle id="Oval" cx="12" cy="11" r="1"></circle>
                    <circle id="Oval" cx="14" cy="16" r="1"></circle>
                    <circle id="Oval" cx="7" cy="14" r="1"></circle>
                </g>
            </g>
            <path d="M1464.94559,578.879944 L1736.70199,1041.49043" id="Line" stroke="#FFFFFF" stroke-width="5" opacity="0.237211682" stroke-linecap="round"></path>
            <path d="M1510.40356,615.12319 L1782.15996,1077.73367" id="Line" stroke="#FFFFFF" stroke-width="5" opacity="0.237211682" stroke-linecap="round"></path>
            <ellipse id="Oval" fill="#FFFFFF" opacity="0.135323661" transform="translate(1215.347780, 1144.500000) rotate(-33.000000) translate(-1215.347780, -1144.500000) " cx="1215.34778" cy="1144.5" rx="221" ry="117.5"></ellipse>
            <ellipse id="Oval" fill="#FFFFFF" opacity="0.135323661" transform="translate(1293.240491, 306.962502) rotate(-75.000000) translate(-1293.240491, -306.962502) " cx="1293.24049" cy="306.962502" rx="90.5" ry="142.5"></ellipse>
            <g id="Oval" opacity="0.124186198" transform="translate(1309.847780, 1101.000000) rotate(6.000000) translate(-1309.847780, -1101.000000) ">
                <use fill="black" fill-opacity="1" filter="url(#filter-3)" xlink:href="#path-2"></use>
                <use stroke="#979797" stroke-width="1" fill="#FFFFFF" fill-rule="evenodd" xlink:href="#path-2"></use>
            </g>
            <ellipse id="Oval" fill="url(#linearGradient-4)" opacity="0.247163318" cx="211.84778" cy="1244" rx="90.5" ry="88"></ellipse>
            <ellipse id="Oval" fill="#FFFFFF" opacity="0.135323661" transform="translate(621.847780, 158.500000) rotate(-109.000000) translate(-621.847780, -158.500000) " cx="621.84778" cy="158.5" rx="90.5" ry="142.5"></ellipse>
            <ellipse id="Oval" fill="#FFFFFF" opacity="0.135323661" transform="translate(745.847780, 132.500000) rotate(-109.000000) translate(-745.847780, -132.500000) " cx="745.84778" cy="132.5" rx="90.5" ry="142.5"></ellipse>
            <ellipse id="Oval" fill="#FFFFFF" opacity="0.135323661" transform="translate(111.000000, 636.800571) rotate(-109.000000) translate(-111.000000, -636.800571) " cx="111" cy="636.800571" rx="95" ry="84"></ellipse>
            <ellipse id="Oval" fill="#FFFFFF" opacity="0.135323661" transform="translate(230.347780, 559.000000) rotate(-109.000000) translate(-230.347780, -559.000000) " cx="230.34778" cy="559" rx="95" ry="84"></ellipse>
            <g id="cookiecluster" transform="translate(295.347780, 1144.000000)" fill="#FFFFFF" fill-rule="nonzero" opacity="0.711263021">
                <g id="cookierow">
                    <g id="cookie">
                        <path d="M23.8027132,13.5036735 C23.6361921,13.2783673 23.3864106,13.1314286 23.1121406,13.0971429 C19.5025522,12.6514286 16.7843411,9.6 16.7843411,5.99020408 C16.7843411,4.78040816 17.0977925,3.58040816 17.6904115,2.52244898 C17.8275465,2.28244898 17.8520349,1.99346939 17.7687743,1.72897959 C17.6855138,1.4644898 17.4896067,1.24897959 17.2398252,1.13142857 C15.6186939,0.382040816 13.8898137,0 12.0972637,0 C5.42662678,0 0,5.38285714 0,12 C0,18.6171429 5.42662678,24 12.1021614,24 C17.8912163,24 22.8868474,19.9102041 23.9839272,14.277551 C24.032904,14.0081633 23.9692342,13.7289796 23.8027132,13.5036735 Z M12.0972637,22.0016327 C6.5383996,22.0016327 2.01294549,17.515102 2.01294549,12 C2.01294549,6.48489796 6.5383996,1.99836735 12.0972637,1.99836735 C13.2482179,1.99836735 14.3697861,2.18938776 15.4374798,2.56163265 C14.9966888,3.64897959 14.766498,4.81469388 14.766498,5.99020408 C14.766498,10.2269388 17.7002069,13.8661224 21.7554839,14.875102 C20.4967808,19.0579592 16.5835364,22.0016327 12.0972637,22.0016327 Z" id="Shape"></path>
                        <circle id="Oval" cx="9" cy="7" r="1"></circle>
                        <circle id="Oval" cx="12" cy="11" r="1"></circle>
                        <circle id="Oval" cx="14" cy="16" r="1"></circle>
                        <circle id="Oval" cx="7" cy="14" r="1"></circle>
                    </g>
                    <g id="cookie" transform="translate(32.000000, 0.000000)">
                        <path d="M23.8027132,13.5036735 C23.6361921,13.2783673 23.3864106,13.1314286 23.1121406,13.0971429 C19.5025522,12.6514286 16.7843411,9.6 16.7843411,5.99020408 C16.7843411,4.78040816 17.0977925,3.58040816 17.6904115,2.52244898 C17.8275465,2.28244898 17.8520349,1.99346939 17.7687743,1.72897959 C17.6855138,1.4644898 17.4896067,1.24897959 17.2398252,1.13142857 C15.6186939,0.382040816 13.8898137,0 12.0972637,0 C5.42662678,0 0,5.38285714 0,12 C0,18.6171429 5.42662678,24 12.1021614,24 C17.8912163,24 22.8868474,19.9102041 23.9839272,14.277551 C24.032904,14.0081633 23.9692342,13.7289796 23.8027132,13.5036735 Z M12.0972637,22.0016327 C6.5383996,22.0016327 2.01294549,17.515102 2.01294549,12 C2.01294549,6.48489796 6.5383996,1.99836735 12.0972637,1.99836735 C13.2482179,1.99836735 14.3697861,2.18938776 15.4374798,2.56163265 C14.9966888,3.64897959 14.766498,4.81469388 14.766498,5.99020408 C14.766498,10.2269388 17.7002069,13.8661224 21.7554839,14.875102 C20.4967808,19.0579592 16.5835364,22.0016327 12.0972637,22.0016327 Z" id="Shape"></path>
                        <circle id="Oval" cx="9" cy="7" r="1"></circle>
                        <circle id="Oval" cx="12" cy="11" r="1"></circle>
                        <circle id="Oval" cx="14" cy="16" r="1"></circle>
                        <circle id="Oval" cx="7" cy="14" r="1"></circle>
                    </g>
                    <g id="cookie" transform="translate(63.000000, 0.000000)">
                        <path d="M23.8027132,13.5036735 C23.6361921,13.2783673 23.3864106,13.1314286 23.1121406,13.0971429 C19.5025522,12.6514286 16.7843411,9.6 16.7843411,5.99020408 C16.7843411,4.78040816 17.0977925,3.58040816 17.6904115,2.52244898 C17.8275465,2.28244898 17.8520349,1.99346939 17.7687743,1.72897959 C17.6855138,1.4644898 17.4896067,1.24897959 17.2398252,1.13142857 C15.6186939,0.382040816 13.8898137,0 12.0972637,0 C5.42662678,0 0,5.38285714 0,12 C0,18.6171429 5.42662678,24 12.1021614,24 C17.8912163,24 22.8868474,19.9102041 23.9839272,14.277551 C24.032904,14.0081633 23.9692342,13.7289796 23.8027132,13.5036735 Z M12.0972637,22.0016327 C6.5383996,22.0016327 2.01294549,17.515102 2.01294549,12 C2.01294549,6.48489796 6.5383996,1.99836735 12.0972637,1.99836735 C13.2482179,1.99836735 14.3697861,2.18938776 15.4374798,2.56163265 C14.9966888,3.64897959 14.766498,4.81469388 14.766498,5.99020408 C14.766498,10.2269388 17.7002069,13.8661224 21.7554839,14.875102 C20.4967808,19.0579592 16.5835364,22.0016327 12.0972637,22.0016327 Z" id="Shape"></path>
                        <circle id="Oval" cx="9" cy="7" r="1"></circle>
                        <circle id="Oval" cx="12" cy="11" r="1"></circle>
                        <circle id="Oval" cx="14" cy="16" r="1"></circle>
                        <circle id="Oval" cx="7" cy="14" r="1"></circle>
                    </g>
                    <g id="cookie" transform="translate(94.000000, 0.000000)">
                        <path d="M23.8027132,13.5036735 C23.6361921,13.2783673 23.3864106,13.1314286 23.1121406,13.0971429 C19.5025522,12.6514286 16.7843411,9.6 16.7843411,5.99020408 C16.7843411,4.78040816 17.0977925,3.58040816 17.6904115,2.52244898 C17.8275465,2.28244898 17.8520349,1.99346939 17.7687743,1.72897959 C17.6855138,1.4644898 17.4896067,1.24897959 17.2398252,1.13142857 C15.6186939,0.382040816 13.8898137,0 12.0972637,0 C5.42662678,0 0,5.38285714 0,12 C0,18.6171429 5.42662678,24 12.1021614,24 C17.8912163,24 22.8868474,19.9102041 23.9839272,14.277551 C24.032904,14.0081633 23.9692342,13.7289796 23.8027132,13.5036735 Z M12.0972637,22.0016327 C6.5383996,22.0016327 2.01294549,17.515102 2.01294549,12 C2.01294549,6.48489796 6.5383996,1.99836735 12.0972637,1.99836735 C13.2482179,1.99836735 14.3697861,2.18938776 15.4374798,2.56163265 C14.9966888,3.64897959 14.766498,4.81469388 14.766498,5.99020408 C14.766498,10.2269388 17.7002069,13.8661224 21.7554839,14.875102 C20.4967808,19.0579592 16.5835364,22.0016327 12.0972637,22.0016327 Z" id="Shape"></path>
                        <circle id="Oval" cx="9" cy="7" r="1"></circle>
                        <circle id="Oval" cx="12" cy="11" r="1"></circle>
                        <circle id="Oval" cx="14" cy="16" r="1"></circle>
                        <circle id="Oval" cx="7" cy="14" r="1"></circle>
                    </g>
                    <g id="cookie" transform="translate(126.000000, 0.000000)">
                        <path d="M23.8027132,13.5036735 C23.6361921,13.2783673 23.3864106,13.1314286 23.1121406,13.0971429 C19.5025522,12.6514286 16.7843411,9.6 16.7843411,5.99020408 C16.7843411,4.78040816 17.0977925,3.58040816 17.6904115,2.52244898 C17.8275465,2.28244898 17.8520349,1.99346939 17.7687743,1.72897959 C17.6855138,1.4644898 17.4896067,1.24897959 17.2398252,1.13142857 C15.6186939,0.382040816 13.8898137,0 12.0972637,0 C5.42662678,0 0,5.38285714 0,12 C0,18.6171429 5.42662678,24 12.1021614,24 C17.8912163,24 22.8868474,19.9102041 23.9839272,14.277551 C24.032904,14.0081633 23.9692342,13.7289796 23.8027132,13.5036735 Z M12.0972637,22.0016327 C6.5383996,22.0016327 2.01294549,17.515102 2.01294549,12 C2.01294549,6.48489796 6.5383996,1.99836735 12.0972637,1.99836735 C13.2482179,1.99836735 14.3697861,2.18938776 15.4374798,2.56163265 C14.9966888,3.64897959 14.766498,4.81469388 14.766498,5.99020408 C14.766498,10.2269388 17.7002069,13.8661224 21.7554839,14.875102 C20.4967808,19.0579592 16.5835364,22.0016327 12.0972637,22.0016327 Z" id="Shape"></path>
                        <circle id="Oval" cx="9" cy="7" r="1"></circle>
                        <circle id="Oval" cx="12" cy="11" r="1"></circle>
                        <circle id="Oval" cx="14" cy="16" r="1"></circle>
                        <circle id="Oval" cx="7" cy="14" r="1"></circle>
                    </g>
                    <g id="cookie" transform="translate(157.000000, 0.000000)">
                        <path d="M23.8027132,13.5036735 C23.6361921,13.2783673 23.3864106,13.1314286 23.1121406,13.0971429 C19.5025522,12.6514286 16.7843411,9.6 16.7843411,5.99020408 C16.7843411,4.78040816 17.0977925,3.58040816 17.6904115,2.52244898 C17.8275465,2.28244898 17.8520349,1.99346939 17.7687743,1.72897959 C17.6855138,1.4644898 17.4896067,1.24897959 17.2398252,1.13142857 C15.6186939,0.382040816 13.8898137,0 12.0972637,0 C5.42662678,0 0,5.38285714 0,12 C0,18.6171429 5.42662678,24 12.1021614,24 C17.8912163,24 22.8868474,19.9102041 23.9839272,14.277551 C24.032904,14.0081633 23.9692342,13.7289796 23.8027132,13.5036735 Z M12.0972637,22.0016327 C6.5383996,22.0016327 2.01294549,17.515102 2.01294549,12 C2.01294549,6.48489796 6.5383996,1.99836735 12.0972637,1.99836735 C13.2482179,1.99836735 14.3697861,2.18938776 15.4374798,2.56163265 C14.9966888,3.64897959 14.766498,4.81469388 14.766498,5.99020408 C14.766498,10.2269388 17.7002069,13.8661224 21.7554839,14.875102 C20.4967808,19.0579592 16.5835364,22.0016327 12.0972637,22.0016327 Z" id="Shape"></path>
                        <circle id="Oval" cx="9" cy="7" r="1"></circle>
                        <circle id="Oval" cx="12" cy="11" r="1"></circle>
                        <circle id="Oval" cx="14" cy="16" r="1"></circle>
                        <circle id="Oval" cx="7" cy="14" r="1"></circle>
                    </g>
                </g>
                <g id="cookierow" transform="translate(12.000000, 30.000000)">
                    <g id="cookie">
                        <path d="M23.8027132,13.5036735 C23.6361921,13.2783673 23.3864106,13.1314286 23.1121406,13.0971429 C19.5025522,12.6514286 16.7843411,9.6 16.7843411,5.99020408 C16.7843411,4.78040816 17.0977925,3.58040816 17.6904115,2.52244898 C17.8275465,2.28244898 17.8520349,1.99346939 17.7687743,1.72897959 C17.6855138,1.4644898 17.4896067,1.24897959 17.2398252,1.13142857 C15.6186939,0.382040816 13.8898137,0 12.0972637,0 C5.42662678,0 0,5.38285714 0,12 C0,18.6171429 5.42662678,24 12.1021614,24 C17.8912163,24 22.8868474,19.9102041 23.9839272,14.277551 C24.032904,14.0081633 23.9692342,13.7289796 23.8027132,13.5036735 Z M12.0972637,22.0016327 C6.5383996,22.0016327 2.01294549,17.515102 2.01294549,12 C2.01294549,6.48489796 6.5383996,1.99836735 12.0972637,1.99836735 C13.2482179,1.99836735 14.3697861,2.18938776 15.4374798,2.56163265 C14.9966888,3.64897959 14.766498,4.81469388 14.766498,5.99020408 C14.766498,10.2269388 17.7002069,13.8661224 21.7554839,14.875102 C20.4967808,19.0579592 16.5835364,22.0016327 12.0972637,22.0016327 Z" id="Shape"></path>
                        <circle id="Oval" cx="9" cy="7" r="1"></circle>
                        <circle id="Oval" cx="12" cy="11" r="1"></circle>
                        <circle id="Oval" cx="14" cy="16" r="1"></circle>
                        <circle id="Oval" cx="7" cy="14" r="1"></circle>
                    </g>
                    <g id="cookie" transform="translate(32.000000, 0.000000)">
                        <path d="M23.8027132,13.5036735 C23.6361921,13.2783673 23.3864106,13.1314286 23.1121406,13.0971429 C19.5025522,12.6514286 16.7843411,9.6 16.7843411,5.99020408 C16.7843411,4.78040816 17.0977925,3.58040816 17.6904115,2.52244898 C17.8275465,2.28244898 17.8520349,1.99346939 17.7687743,1.72897959 C17.6855138,1.4644898 17.4896067,1.24897959 17.2398252,1.13142857 C15.6186939,0.382040816 13.8898137,0 12.0972637,0 C5.42662678,0 0,5.38285714 0,12 C0,18.6171429 5.42662678,24 12.1021614,24 C17.8912163,24 22.8868474,19.9102041 23.9839272,14.277551 C24.032904,14.0081633 23.9692342,13.7289796 23.8027132,13.5036735 Z M12.0972637,22.0016327 C6.5383996,22.0016327 2.01294549,17.515102 2.01294549,12 C2.01294549,6.48489796 6.5383996,1.99836735 12.0972637,1.99836735 C13.2482179,1.99836735 14.3697861,2.18938776 15.4374798,2.56163265 C14.9966888,3.64897959 14.766498,4.81469388 14.766498,5.99020408 C14.766498,10.2269388 17.7002069,13.8661224 21.7554839,14.875102 C20.4967808,19.0579592 16.5835364,22.0016327 12.0972637,22.0016327 Z" id="Shape"></path>
                        <circle id="Oval" cx="9" cy="7" r="1"></circle>
                        <circle id="Oval" cx="12" cy="11" r="1"></circle>
                        <circle id="Oval" cx="14" cy="16" r="1"></circle>
                        <circle id="Oval" cx="7" cy="14" r="1"></circle>
                    </g>
                    <g id="cookie" transform="translate(63.000000, 0.000000)">
                        <path d="M23.8027132,13.5036735 C23.6361921,13.2783673 23.3864106,13.1314286 23.1121406,13.0971429 C19.5025522,12.6514286 16.7843411,9.6 16.7843411,5.99020408 C16.7843411,4.78040816 17.0977925,3.58040816 17.6904115,2.52244898 C17.8275465,2.28244898 17.8520349,1.99346939 17.7687743,1.72897959 C17.6855138,1.4644898 17.4896067,1.24897959 17.2398252,1.13142857 C15.6186939,0.382040816 13.8898137,0 12.0972637,0 C5.42662678,0 0,5.38285714 0,12 C0,18.6171429 5.42662678,24 12.1021614,24 C17.8912163,24 22.8868474,19.9102041 23.9839272,14.277551 C24.032904,14.0081633 23.9692342,13.7289796 23.8027132,13.5036735 Z M12.0972637,22.0016327 C6.5383996,22.0016327 2.01294549,17.515102 2.01294549,12 C2.01294549,6.48489796 6.5383996,1.99836735 12.0972637,1.99836735 C13.2482179,1.99836735 14.3697861,2.18938776 15.4374798,2.56163265 C14.9966888,3.64897959 14.766498,4.81469388 14.766498,5.99020408 C14.766498,10.2269388 17.7002069,13.8661224 21.7554839,14.875102 C20.4967808,19.0579592 16.5835364,22.0016327 12.0972637,22.0016327 Z" id="Shape"></path>
                        <circle id="Oval" cx="9" cy="7" r="1"></circle>
                        <circle id="Oval" cx="12" cy="11" r="1"></circle>
                        <circle id="Oval" cx="14" cy="16" r="1"></circle>
                        <circle id="Oval" cx="7" cy="14" r="1"></circle>
                    </g>
                    <g id="cookie" transform="translate(94.000000, 0.000000)">
                        <path d="M23.8027132,13.5036735 C23.6361921,13.2783673 23.3864106,13.1314286 23.1121406,13.0971429 C19.5025522,12.6514286 16.7843411,9.6 16.7843411,5.99020408 C16.7843411,4.78040816 17.0977925,3.58040816 17.6904115,2.52244898 C17.8275465,2.28244898 17.8520349,1.99346939 17.7687743,1.72897959 C17.6855138,1.4644898 17.4896067,1.24897959 17.2398252,1.13142857 C15.6186939,0.382040816 13.8898137,0 12.0972637,0 C5.42662678,0 0,5.38285714 0,12 C0,18.6171429 5.42662678,24 12.1021614,24 C17.8912163,24 22.8868474,19.9102041 23.9839272,14.277551 C24.032904,14.0081633 23.9692342,13.7289796 23.8027132,13.5036735 Z M12.0972637,22.0016327 C6.5383996,22.0016327 2.01294549,17.515102 2.01294549,12 C2.01294549,6.48489796 6.5383996,1.99836735 12.0972637,1.99836735 C13.2482179,1.99836735 14.3697861,2.18938776 15.4374798,2.56163265 C14.9966888,3.64897959 14.766498,4.81469388 14.766498,5.99020408 C14.766498,10.2269388 17.7002069,13.8661224 21.7554839,14.875102 C20.4967808,19.0579592 16.5835364,22.0016327 12.0972637,22.0016327 Z" id="Shape"></path>
                        <circle id="Oval" cx="9" cy="7" r="1"></circle>
                        <circle id="Oval" cx="12" cy="11" r="1"></circle>
                        <circle id="Oval" cx="14" cy="16" r="1"></circle>
                        <circle id="Oval" cx="7" cy="14" r="1"></circle>
                    </g>
                    <g id="cookie" transform="translate(126.000000, 0.000000)">
                        <path d="M23.8027132,13.5036735 C23.6361921,13.2783673 23.3864106,13.1314286 23.1121406,13.0971429 C19.5025522,12.6514286 16.7843411,9.6 16.7843411,5.99020408 C16.7843411,4.78040816 17.0977925,3.58040816 17.6904115,2.52244898 C17.8275465,2.28244898 17.8520349,1.99346939 17.7687743,1.72897959 C17.6855138,1.4644898 17.4896067,1.24897959 17.2398252,1.13142857 C15.6186939,0.382040816 13.8898137,0 12.0972637,0 C5.42662678,0 0,5.38285714 0,12 C0,18.6171429 5.42662678,24 12.1021614,24 C17.8912163,24 22.8868474,19.9102041 23.9839272,14.277551 C24.032904,14.0081633 23.9692342,13.7289796 23.8027132,13.5036735 Z M12.0972637,22.0016327 C6.5383996,22.0016327 2.01294549,17.515102 2.01294549,12 C2.01294549,6.48489796 6.5383996,1.99836735 12.0972637,1.99836735 C13.2482179,1.99836735 14.3697861,2.18938776 15.4374798,2.56163265 C14.9966888,3.64897959 14.766498,4.81469388 14.766498,5.99020408 C14.766498,10.2269388 17.7002069,13.8661224 21.7554839,14.875102 C20.4967808,19.0579592 16.5835364,22.0016327 12.0972637,22.0016327 Z" id="Shape"></path>
                        <circle id="Oval" cx="9" cy="7" r="1"></circle>
                        <circle id="Oval" cx="12" cy="11" r="1"></circle>
                        <circle id="Oval" cx="14" cy="16" r="1"></circle>
                        <circle id="Oval" cx="7" cy="14" r="1"></circle>
                    </g>
                    <g id="cookie" transform="translate(157.000000, 0.000000)">
                        <path d="M23.8027132,13.5036735 C23.6361921,13.2783673 23.3864106,13.1314286 23.1121406,13.0971429 C19.5025522,12.6514286 16.7843411,9.6 16.7843411,5.99020408 C16.7843411,4.78040816 17.0977925,3.58040816 17.6904115,2.52244898 C17.8275465,2.28244898 17.8520349,1.99346939 17.7687743,1.72897959 C17.6855138,1.4644898 17.4896067,1.24897959 17.2398252,1.13142857 C15.6186939,0.382040816 13.8898137,0 12.0972637,0 C5.42662678,0 0,5.38285714 0,12 C0,18.6171429 5.42662678,24 12.1021614,24 C17.8912163,24 22.8868474,19.9102041 23.9839272,14.277551 C24.032904,14.0081633 23.9692342,13.7289796 23.8027132,13.5036735 Z M12.0972637,22.0016327 C6.5383996,22.0016327 2.01294549,17.515102 2.01294549,12 C2.01294549,6.48489796 6.5383996,1.99836735 12.0972637,1.99836735 C13.2482179,1.99836735 14.3697861,2.18938776 15.4374798,2.56163265 C14.9966888,3.64897959 14.766498,4.81469388 14.766498,5.99020408 C14.766498,10.2269388 17.7002069,13.8661224 21.7554839,14.875102 C20.4967808,19.0579592 16.5835364,22.0016327 12.0972637,22.0016327 Z" id="Shape"></path>
                        <circle id="Oval" cx="9" cy="7" r="1"></circle>
                        <circle id="Oval" cx="12" cy="11" r="1"></circle>
                        <circle id="Oval" cx="14" cy="16" r="1"></circle>
                        <circle id="Oval" cx="7" cy="14" r="1"></circle>
                    </g>
                </g>
                <g id="cookierow" transform="translate(28.000000, 60.000000)">
                    <g id="cookie">
                        <path d="M23.8027132,13.5036735 C23.6361921,13.2783673 23.3864106,13.1314286 23.1121406,13.0971429 C19.5025522,12.6514286 16.7843411,9.6 16.7843411,5.99020408 C16.7843411,4.78040816 17.0977925,3.58040816 17.6904115,2.52244898 C17.8275465,2.28244898 17.8520349,1.99346939 17.7687743,1.72897959 C17.6855138,1.4644898 17.4896067,1.24897959 17.2398252,1.13142857 C15.6186939,0.382040816 13.8898137,0 12.0972637,0 C5.42662678,0 0,5.38285714 0,12 C0,18.6171429 5.42662678,24 12.1021614,24 C17.8912163,24 22.8868474,19.9102041 23.9839272,14.277551 C24.032904,14.0081633 23.9692342,13.7289796 23.8027132,13.5036735 Z M12.0972637,22.0016327 C6.5383996,22.0016327 2.01294549,17.515102 2.01294549,12 C2.01294549,6.48489796 6.5383996,1.99836735 12.0972637,1.99836735 C13.2482179,1.99836735 14.3697861,2.18938776 15.4374798,2.56163265 C14.9966888,3.64897959 14.766498,4.81469388 14.766498,5.99020408 C14.766498,10.2269388 17.7002069,13.8661224 21.7554839,14.875102 C20.4967808,19.0579592 16.5835364,22.0016327 12.0972637,22.0016327 Z" id="Shape"></path>
                        <circle id="Oval" cx="9" cy="7" r="1"></circle>
                        <circle id="Oval" cx="12" cy="11" r="1"></circle>
                        <circle id="Oval" cx="14" cy="16" r="1"></circle>
                        <circle id="Oval" cx="7" cy="14" r="1"></circle>
                    </g>
                    <g id="cookie" transform="translate(32.000000, 0.000000)">
                        <path d="M23.8027132,13.5036735 C23.6361921,13.2783673 23.3864106,13.1314286 23.1121406,13.0971429 C19.5025522,12.6514286 16.7843411,9.6 16.7843411,5.99020408 C16.7843411,4.78040816 17.0977925,3.58040816 17.6904115,2.52244898 C17.8275465,2.28244898 17.8520349,1.99346939 17.7687743,1.72897959 C17.6855138,1.4644898 17.4896067,1.24897959 17.2398252,1.13142857 C15.6186939,0.382040816 13.8898137,0 12.0972637,0 C5.42662678,0 0,5.38285714 0,12 C0,18.6171429 5.42662678,24 12.1021614,24 C17.8912163,24 22.8868474,19.9102041 23.9839272,14.277551 C24.032904,14.0081633 23.9692342,13.7289796 23.8027132,13.5036735 Z M12.0972637,22.0016327 C6.5383996,22.0016327 2.01294549,17.515102 2.01294549,12 C2.01294549,6.48489796 6.5383996,1.99836735 12.0972637,1.99836735 C13.2482179,1.99836735 14.3697861,2.18938776 15.4374798,2.56163265 C14.9966888,3.64897959 14.766498,4.81469388 14.766498,5.99020408 C14.766498,10.2269388 17.7002069,13.8661224 21.7554839,14.875102 C20.4967808,19.0579592 16.5835364,22.0016327 12.0972637,22.0016327 Z" id="Shape"></path>
                        <circle id="Oval" cx="9" cy="7" r="1"></circle>
                        <circle id="Oval" cx="12" cy="11" r="1"></circle>
                        <circle id="Oval" cx="14" cy="16" r="1"></circle>
                        <circle id="Oval" cx="7" cy="14" r="1"></circle>
                    </g>
                    <g id="cookie" transform="translate(63.000000, 0.000000)">
                        <path d="M23.8027132,13.5036735 C23.6361921,13.2783673 23.3864106,13.1314286 23.1121406,13.0971429 C19.5025522,12.6514286 16.7843411,9.6 16.7843411,5.99020408 C16.7843411,4.78040816 17.0977925,3.58040816 17.6904115,2.52244898 C17.8275465,2.28244898 17.8520349,1.99346939 17.7687743,1.72897959 C17.6855138,1.4644898 17.4896067,1.24897959 17.2398252,1.13142857 C15.6186939,0.382040816 13.8898137,0 12.0972637,0 C5.42662678,0 0,5.38285714 0,12 C0,18.6171429 5.42662678,24 12.1021614,24 C17.8912163,24 22.8868474,19.9102041 23.9839272,14.277551 C24.032904,14.0081633 23.9692342,13.7289796 23.8027132,13.5036735 Z M12.0972637,22.0016327 C6.5383996,22.0016327 2.01294549,17.515102 2.01294549,12 C2.01294549,6.48489796 6.5383996,1.99836735 12.0972637,1.99836735 C13.2482179,1.99836735 14.3697861,2.18938776 15.4374798,2.56163265 C14.9966888,3.64897959 14.766498,4.81469388 14.766498,5.99020408 C14.766498,10.2269388 17.7002069,13.8661224 21.7554839,14.875102 C20.4967808,19.0579592 16.5835364,22.0016327 12.0972637,22.0016327 Z" id="Shape"></path>
                        <circle id="Oval" cx="9" cy="7" r="1"></circle>
                        <circle id="Oval" cx="12" cy="11" r="1"></circle>
                        <circle id="Oval" cx="14" cy="16" r="1"></circle>
                        <circle id="Oval" cx="7" cy="14" r="1"></circle>
                    </g>
                    <g id="cookie" transform="translate(94.000000, 0.000000)">
                        <path d="M23.8027132,13.5036735 C23.6361921,13.2783673 23.3864106,13.1314286 23.1121406,13.0971429 C19.5025522,12.6514286 16.7843411,9.6 16.7843411,5.99020408 C16.7843411,4.78040816 17.0977925,3.58040816 17.6904115,2.52244898 C17.8275465,2.28244898 17.8520349,1.99346939 17.7687743,1.72897959 C17.6855138,1.4644898 17.4896067,1.24897959 17.2398252,1.13142857 C15.6186939,0.382040816 13.8898137,0 12.0972637,0 C5.42662678,0 0,5.38285714 0,12 C0,18.6171429 5.42662678,24 12.1021614,24 C17.8912163,24 22.8868474,19.9102041 23.9839272,14.277551 C24.032904,14.0081633 23.9692342,13.7289796 23.8027132,13.5036735 Z M12.0972637,22.0016327 C6.5383996,22.0016327 2.01294549,17.515102 2.01294549,12 C2.01294549,6.48489796 6.5383996,1.99836735 12.0972637,1.99836735 C13.2482179,1.99836735 14.3697861,2.18938776 15.4374798,2.56163265 C14.9966888,3.64897959 14.766498,4.81469388 14.766498,5.99020408 C14.766498,10.2269388 17.7002069,13.8661224 21.7554839,14.875102 C20.4967808,19.0579592 16.5835364,22.0016327 12.0972637,22.0016327 Z" id="Shape"></path>
                        <circle id="Oval" cx="9" cy="7" r="1"></circle>
                        <circle id="Oval" cx="12" cy="11" r="1"></circle>
                        <circle id="Oval" cx="14" cy="16" r="1"></circle>
                        <circle id="Oval" cx="7" cy="14" r="1"></circle>
                    </g>
                    <g id="cookie" transform="translate(126.000000, 0.000000)">
                        <path d="M23.8027132,13.5036735 C23.6361921,13.2783673 23.3864106,13.1314286 23.1121406,13.0971429 C19.5025522,12.6514286 16.7843411,9.6 16.7843411,5.99020408 C16.7843411,4.78040816 17.0977925,3.58040816 17.6904115,2.52244898 C17.8275465,2.28244898 17.8520349,1.99346939 17.7687743,1.72897959 C17.6855138,1.4644898 17.4896067,1.24897959 17.2398252,1.13142857 C15.6186939,0.382040816 13.8898137,0 12.0972637,0 C5.42662678,0 0,5.38285714 0,12 C0,18.6171429 5.42662678,24 12.1021614,24 C17.8912163,24 22.8868474,19.9102041 23.9839272,14.277551 C24.032904,14.0081633 23.9692342,13.7289796 23.8027132,13.5036735 Z M12.0972637,22.0016327 C6.5383996,22.0016327 2.01294549,17.515102 2.01294549,12 C2.01294549,6.48489796 6.5383996,1.99836735 12.0972637,1.99836735 C13.2482179,1.99836735 14.3697861,2.18938776 15.4374798,2.56163265 C14.9966888,3.64897959 14.766498,4.81469388 14.766498,5.99020408 C14.766498,10.2269388 17.7002069,13.8661224 21.7554839,14.875102 C20.4967808,19.0579592 16.5835364,22.0016327 12.0972637,22.0016327 Z" id="Shape"></path>
                        <circle id="Oval" cx="9" cy="7" r="1"></circle>
                        <circle id="Oval" cx="12" cy="11" r="1"></circle>
                        <circle id="Oval" cx="14" cy="16" r="1"></circle>
                        <circle id="Oval" cx="7" cy="14" r="1"></circle>
                    </g>
                    <g id="cookie" transform="translate(157.000000, 0.000000)">
                        <path d="M23.8027132,13.5036735 C23.6361921,13.2783673 23.3864106,13.1314286 23.1121406,13.0971429 C19.5025522,12.6514286 16.7843411,9.6 16.7843411,5.99020408 C16.7843411,4.78040816 17.0977925,3.58040816 17.6904115,2.52244898 C17.8275465,2.28244898 17.8520349,1.99346939 17.7687743,1.72897959 C17.6855138,1.4644898 17.4896067,1.24897959 17.2398252,1.13142857 C15.6186939,0.382040816 13.8898137,0 12.0972637,0 C5.42662678,0 0,5.38285714 0,12 C0,18.6171429 5.42662678,24 12.1021614,24 C17.8912163,24 22.8868474,19.9102041 23.9839272,14.277551 C24.032904,14.0081633 23.9692342,13.7289796 23.8027132,13.5036735 Z M12.0972637,22.0016327 C6.5383996,22.0016327 2.01294549,17.515102 2.01294549,12 C2.01294549,6.48489796 6.5383996,1.99836735 12.0972637,1.99836735 C13.2482179,1.99836735 14.3697861,2.18938776 15.4374798,2.56163265 C14.9966888,3.64897959 14.766498,4.81469388 14.766498,5.99020408 C14.766498,10.2269388 17.7002069,13.8661224 21.7554839,14.875102 C20.4967808,19.0579592 16.5835364,22.0016327 12.0972637,22.0016327 Z" id="Shape"></path>
                        <circle id="Oval" cx="9" cy="7" r="1"></circle>
                        <circle id="Oval" cx="12" cy="11" r="1"></circle>
                        <circle id="Oval" cx="14" cy="16" r="1"></circle>
                        <circle id="Oval" cx="7" cy="14" r="1"></circle>
                    </g>
                </g>
            </g>
            <g id="cookiecluster" transform="translate(1289.347780, 435.000000) rotate(-90.000000) translate(-1289.347780, -435.000000) translate(1182.347780, 98.000000)" fill="#FFFFFF" fill-rule="nonzero" opacity="0.711263021">
                <g id="cookierow" transform="translate(0.000000, 590.000000)">
                    <g id="cookie">
                        <path d="M23.8027132,13.5036735 C23.6361921,13.2783673 23.3864106,13.1314286 23.1121406,13.0971429 C19.5025522,12.6514286 16.7843411,9.6 16.7843411,5.99020408 C16.7843411,4.78040816 17.0977925,3.58040816 17.6904115,2.52244898 C17.8275465,2.28244898 17.8520349,1.99346939 17.7687743,1.72897959 C17.6855138,1.4644898 17.4896067,1.24897959 17.2398252,1.13142857 C15.6186939,0.382040816 13.8898137,0 12.0972637,0 C5.42662678,0 0,5.38285714 0,12 C0,18.6171429 5.42662678,24 12.1021614,24 C17.8912163,24 22.8868474,19.9102041 23.9839272,14.277551 C24.032904,14.0081633 23.9692342,13.7289796 23.8027132,13.5036735 Z M12.0972637,22.0016327 C6.5383996,22.0016327 2.01294549,17.515102 2.01294549,12 C2.01294549,6.48489796 6.5383996,1.99836735 12.0972637,1.99836735 C13.2482179,1.99836735 14.3697861,2.18938776 15.4374798,2.56163265 C14.9966888,3.64897959 14.766498,4.81469388 14.766498,5.99020408 C14.766498,10.2269388 17.7002069,13.8661224 21.7554839,14.875102 C20.4967808,19.0579592 16.5835364,22.0016327 12.0972637,22.0016327 Z" id="Shape"></path>
                        <circle id="Oval" cx="9" cy="7" r="1"></circle>
                        <circle id="Oval" cx="12" cy="11" r="1"></circle>
                        <circle id="Oval" cx="14" cy="16" r="1"></circle>
                        <circle id="Oval" cx="7" cy="14" r="1"></circle>
                    </g>
                    <g id="cookie" transform="translate(32.000000, 0.000000)">
                        <path d="M23.8027132,13.5036735 C23.6361921,13.2783673 23.3864106,13.1314286 23.1121406,13.0971429 C19.5025522,12.6514286 16.7843411,9.6 16.7843411,5.99020408 C16.7843411,4.78040816 17.0977925,3.58040816 17.6904115,2.52244898 C17.8275465,2.28244898 17.8520349,1.99346939 17.7687743,1.72897959 C17.6855138,1.4644898 17.4896067,1.24897959 17.2398252,1.13142857 C15.6186939,0.382040816 13.8898137,0 12.0972637,0 C5.42662678,0 0,5.38285714 0,12 C0,18.6171429 5.42662678,24 12.1021614,24 C17.8912163,24 22.8868474,19.9102041 23.9839272,14.277551 C24.032904,14.0081633 23.9692342,13.7289796 23.8027132,13.5036735 Z M12.0972637,22.0016327 C6.5383996,22.0016327 2.01294549,17.515102 2.01294549,12 C2.01294549,6.48489796 6.5383996,1.99836735 12.0972637,1.99836735 C13.2482179,1.99836735 14.3697861,2.18938776 15.4374798,2.56163265 C14.9966888,3.64897959 14.766498,4.81469388 14.766498,5.99020408 C14.766498,10.2269388 17.7002069,13.8661224 21.7554839,14.875102 C20.4967808,19.0579592 16.5835364,22.0016327 12.0972637,22.0016327 Z" id="Shape"></path>
                        <circle id="Oval" cx="9" cy="7" r="1"></circle>
                        <circle id="Oval" cx="12" cy="11" r="1"></circle>
                        <circle id="Oval" cx="14" cy="16" r="1"></circle>
                        <circle id="Oval" cx="7" cy="14" r="1"></circle>
                    </g>
                    <g id="cookie" transform="translate(63.000000, 0.000000)">
                        <path d="M23.8027132,13.5036735 C23.6361921,13.2783673 23.3864106,13.1314286 23.1121406,13.0971429 C19.5025522,12.6514286 16.7843411,9.6 16.7843411,5.99020408 C16.7843411,4.78040816 17.0977925,3.58040816 17.6904115,2.52244898 C17.8275465,2.28244898 17.8520349,1.99346939 17.7687743,1.72897959 C17.6855138,1.4644898 17.4896067,1.24897959 17.2398252,1.13142857 C15.6186939,0.382040816 13.8898137,0 12.0972637,0 C5.42662678,0 0,5.38285714 0,12 C0,18.6171429 5.42662678,24 12.1021614,24 C17.8912163,24 22.8868474,19.9102041 23.9839272,14.277551 C24.032904,14.0081633 23.9692342,13.7289796 23.8027132,13.5036735 Z M12.0972637,22.0016327 C6.5383996,22.0016327 2.01294549,17.515102 2.01294549,12 C2.01294549,6.48489796 6.5383996,1.99836735 12.0972637,1.99836735 C13.2482179,1.99836735 14.3697861,2.18938776 15.4374798,2.56163265 C14.9966888,3.64897959 14.766498,4.81469388 14.766498,5.99020408 C14.766498,10.2269388 17.7002069,13.8661224 21.7554839,14.875102 C20.4967808,19.0579592 16.5835364,22.0016327 12.0972637,22.0016327 Z" id="Shape"></path>
                        <circle id="Oval" cx="9" cy="7" r="1"></circle>
                        <circle id="Oval" cx="12" cy="11" r="1"></circle>
                        <circle id="Oval" cx="14" cy="16" r="1"></circle>
                        <circle id="Oval" cx="7" cy="14" r="1"></circle>
                    </g>
                    <g id="cookie" transform="translate(94.000000, 0.000000)">
                        <path d="M23.8027132,13.5036735 C23.6361921,13.2783673 23.3864106,13.1314286 23.1121406,13.0971429 C19.5025522,12.6514286 16.7843411,9.6 16.7843411,5.99020408 C16.7843411,4.78040816 17.0977925,3.58040816 17.6904115,2.52244898 C17.8275465,2.28244898 17.8520349,1.99346939 17.7687743,1.72897959 C17.6855138,1.4644898 17.4896067,1.24897959 17.2398252,1.13142857 C15.6186939,0.382040816 13.8898137,0 12.0972637,0 C5.42662678,0 0,5.38285714 0,12 C0,18.6171429 5.42662678,24 12.1021614,24 C17.8912163,24 22.8868474,19.9102041 23.9839272,14.277551 C24.032904,14.0081633 23.9692342,13.7289796 23.8027132,13.5036735 Z M12.0972637,22.0016327 C6.5383996,22.0016327 2.01294549,17.515102 2.01294549,12 C2.01294549,6.48489796 6.5383996,1.99836735 12.0972637,1.99836735 C13.2482179,1.99836735 14.3697861,2.18938776 15.4374798,2.56163265 C14.9966888,3.64897959 14.766498,4.81469388 14.766498,5.99020408 C14.766498,10.2269388 17.7002069,13.8661224 21.7554839,14.875102 C20.4967808,19.0579592 16.5835364,22.0016327 12.0972637,22.0016327 Z" id="Shape"></path>
                        <circle id="Oval" cx="9" cy="7" r="1"></circle>
                        <circle id="Oval" cx="12" cy="11" r="1"></circle>
                        <circle id="Oval" cx="14" cy="16" r="1"></circle>
                        <circle id="Oval" cx="7" cy="14" r="1"></circle>
                    </g>
                    <g id="cookie" transform="translate(126.000000, 0.000000)">
                        <path d="M23.8027132,13.5036735 C23.6361921,13.2783673 23.3864106,13.1314286 23.1121406,13.0971429 C19.5025522,12.6514286 16.7843411,9.6 16.7843411,5.99020408 C16.7843411,4.78040816 17.0977925,3.58040816 17.6904115,2.52244898 C17.8275465,2.28244898 17.8520349,1.99346939 17.7687743,1.72897959 C17.6855138,1.4644898 17.4896067,1.24897959 17.2398252,1.13142857 C15.6186939,0.382040816 13.8898137,0 12.0972637,0 C5.42662678,0 0,5.38285714 0,12 C0,18.6171429 5.42662678,24 12.1021614,24 C17.8912163,24 22.8868474,19.9102041 23.9839272,14.277551 C24.032904,14.0081633 23.9692342,13.7289796 23.8027132,13.5036735 Z M12.0972637,22.0016327 C6.5383996,22.0016327 2.01294549,17.515102 2.01294549,12 C2.01294549,6.48489796 6.5383996,1.99836735 12.0972637,1.99836735 C13.2482179,1.99836735 14.3697861,2.18938776 15.4374798,2.56163265 C14.9966888,3.64897959 14.766498,4.81469388 14.766498,5.99020408 C14.766498,10.2269388 17.7002069,13.8661224 21.7554839,14.875102 C20.4967808,19.0579592 16.5835364,22.0016327 12.0972637,22.0016327 Z" id="Shape"></path>
                        <circle id="Oval" cx="9" cy="7" r="1"></circle>
                        <circle id="Oval" cx="12" cy="11" r="1"></circle>
                        <circle id="Oval" cx="14" cy="16" r="1"></circle>
                        <circle id="Oval" cx="7" cy="14" r="1"></circle>
                    </g>
                    <g id="cookie" transform="translate(157.000000, 0.000000)">
                        <path d="M23.8027132,13.5036735 C23.6361921,13.2783673 23.3864106,13.1314286 23.1121406,13.0971429 C19.5025522,12.6514286 16.7843411,9.6 16.7843411,5.99020408 C16.7843411,4.78040816 17.0977925,3.58040816 17.6904115,2.52244898 C17.8275465,2.28244898 17.8520349,1.99346939 17.7687743,1.72897959 C17.6855138,1.4644898 17.4896067,1.24897959 17.2398252,1.13142857 C15.6186939,0.382040816 13.8898137,0 12.0972637,0 C5.42662678,0 0,5.38285714 0,12 C0,18.6171429 5.42662678,24 12.1021614,24 C17.8912163,24 22.8868474,19.9102041 23.9839272,14.277551 C24.032904,14.0081633 23.9692342,13.7289796 23.8027132,13.5036735 Z M12.0972637,22.0016327 C6.5383996,22.0016327 2.01294549,17.515102 2.01294549,12 C2.01294549,6.48489796 6.5383996,1.99836735 12.0972637,1.99836735 C13.2482179,1.99836735 14.3697861,2.18938776 15.4374798,2.56163265 C14.9966888,3.64897959 14.766498,4.81469388 14.766498,5.99020408 C14.766498,10.2269388 17.7002069,13.8661224 21.7554839,14.875102 C20.4967808,19.0579592 16.5835364,22.0016327 12.0972637,22.0016327 Z" id="Shape"></path>
                        <circle id="Oval" cx="9" cy="7" r="1"></circle>
                        <circle id="Oval" cx="12" cy="11" r="1"></circle>
                        <circle id="Oval" cx="14" cy="16" r="1"></circle>
                        <circle id="Oval" cx="7" cy="14" r="1"></circle>
                    </g>
                </g>
                <g id="cookierow" transform="translate(12.000000, 620.000000)">
                    <g id="cookie">
                        <path d="M23.8027132,13.5036735 C23.6361921,13.2783673 23.3864106,13.1314286 23.1121406,13.0971429 C19.5025522,12.6514286 16.7843411,9.6 16.7843411,5.99020408 C16.7843411,4.78040816 17.0977925,3.58040816 17.6904115,2.52244898 C17.8275465,2.28244898 17.8520349,1.99346939 17.7687743,1.72897959 C17.6855138,1.4644898 17.4896067,1.24897959 17.2398252,1.13142857 C15.6186939,0.382040816 13.8898137,0 12.0972637,0 C5.42662678,0 0,5.38285714 0,12 C0,18.6171429 5.42662678,24 12.1021614,24 C17.8912163,24 22.8868474,19.9102041 23.9839272,14.277551 C24.032904,14.0081633 23.9692342,13.7289796 23.8027132,13.5036735 Z M12.0972637,22.0016327 C6.5383996,22.0016327 2.01294549,17.515102 2.01294549,12 C2.01294549,6.48489796 6.5383996,1.99836735 12.0972637,1.99836735 C13.2482179,1.99836735 14.3697861,2.18938776 15.4374798,2.56163265 C14.9966888,3.64897959 14.766498,4.81469388 14.766498,5.99020408 C14.766498,10.2269388 17.7002069,13.8661224 21.7554839,14.875102 C20.4967808,19.0579592 16.5835364,22.0016327 12.0972637,22.0016327 Z" id="Shape"></path>
                        <circle id="Oval" cx="9" cy="7" r="1"></circle>
                        <circle id="Oval" cx="12" cy="11" r="1"></circle>
                        <circle id="Oval" cx="14" cy="16" r="1"></circle>
                        <circle id="Oval" cx="7" cy="14" r="1"></circle>
                    </g>
                    <g id="cookie" transform="translate(32.000000, 0.000000)">
                        <path d="M23.8027132,13.5036735 C23.6361921,13.2783673 23.3864106,13.1314286 23.1121406,13.0971429 C19.5025522,12.6514286 16.7843411,9.6 16.7843411,5.99020408 C16.7843411,4.78040816 17.0977925,3.58040816 17.6904115,2.52244898 C17.8275465,2.28244898 17.8520349,1.99346939 17.7687743,1.72897959 C17.6855138,1.4644898 17.4896067,1.24897959 17.2398252,1.13142857 C15.6186939,0.382040816 13.8898137,0 12.0972637,0 C5.42662678,0 0,5.38285714 0,12 C0,18.6171429 5.42662678,24 12.1021614,24 C17.8912163,24 22.8868474,19.9102041 23.9839272,14.277551 C24.032904,14.0081633 23.9692342,13.7289796 23.8027132,13.5036735 Z M12.0972637,22.0016327 C6.5383996,22.0016327 2.01294549,17.515102 2.01294549,12 C2.01294549,6.48489796 6.5383996,1.99836735 12.0972637,1.99836735 C13.2482179,1.99836735 14.3697861,2.18938776 15.4374798,2.56163265 C14.9966888,3.64897959 14.766498,4.81469388 14.766498,5.99020408 C14.766498,10.2269388 17.7002069,13.8661224 21.7554839,14.875102 C20.4967808,19.0579592 16.5835364,22.0016327 12.0972637,22.0016327 Z" id="Shape"></path>
                        <circle id="Oval" cx="9" cy="7" r="1"></circle>
                        <circle id="Oval" cx="12" cy="11" r="1"></circle>
                        <circle id="Oval" cx="14" cy="16" r="1"></circle>
                        <circle id="Oval" cx="7" cy="14" r="1"></circle>
                    </g>
                    <g id="cookie" transform="translate(63.000000, 0.000000)">
                        <path d="M23.8027132,13.5036735 C23.6361921,13.2783673 23.3864106,13.1314286 23.1121406,13.0971429 C19.5025522,12.6514286 16.7843411,9.6 16.7843411,5.99020408 C16.7843411,4.78040816 17.0977925,3.58040816 17.6904115,2.52244898 C17.8275465,2.28244898 17.8520349,1.99346939 17.7687743,1.72897959 C17.6855138,1.4644898 17.4896067,1.24897959 17.2398252,1.13142857 C15.6186939,0.382040816 13.8898137,0 12.0972637,0 C5.42662678,0 0,5.38285714 0,12 C0,18.6171429 5.42662678,24 12.1021614,24 C17.8912163,24 22.8868474,19.9102041 23.9839272,14.277551 C24.032904,14.0081633 23.9692342,13.7289796 23.8027132,13.5036735 Z M12.0972637,22.0016327 C6.5383996,22.0016327 2.01294549,17.515102 2.01294549,12 C2.01294549,6.48489796 6.5383996,1.99836735 12.0972637,1.99836735 C13.2482179,1.99836735 14.3697861,2.18938776 15.4374798,2.56163265 C14.9966888,3.64897959 14.766498,4.81469388 14.766498,5.99020408 C14.766498,10.2269388 17.7002069,13.8661224 21.7554839,14.875102 C20.4967808,19.0579592 16.5835364,22.0016327 12.0972637,22.0016327 Z" id="Shape"></path>
                        <circle id="Oval" cx="9" cy="7" r="1"></circle>
                        <circle id="Oval" cx="12" cy="11" r="1"></circle>
                        <circle id="Oval" cx="14" cy="16" r="1"></circle>
                        <circle id="Oval" cx="7" cy="14" r="1"></circle>
                    </g>
                    <g id="cookie" transform="translate(94.000000, 0.000000)">
                        <path d="M23.8027132,13.5036735 C23.6361921,13.2783673 23.3864106,13.1314286 23.1121406,13.0971429 C19.5025522,12.6514286 16.7843411,9.6 16.7843411,5.99020408 C16.7843411,4.78040816 17.0977925,3.58040816 17.6904115,2.52244898 C17.8275465,2.28244898 17.8520349,1.99346939 17.7687743,1.72897959 C17.6855138,1.4644898 17.4896067,1.24897959 17.2398252,1.13142857 C15.6186939,0.382040816 13.8898137,0 12.0972637,0 C5.42662678,0 0,5.38285714 0,12 C0,18.6171429 5.42662678,24 12.1021614,24 C17.8912163,24 22.8868474,19.9102041 23.9839272,14.277551 C24.032904,14.0081633 23.9692342,13.7289796 23.8027132,13.5036735 Z M12.0972637,22.0016327 C6.5383996,22.0016327 2.01294549,17.515102 2.01294549,12 C2.01294549,6.48489796 6.5383996,1.99836735 12.0972637,1.99836735 C13.2482179,1.99836735 14.3697861,2.18938776 15.4374798,2.56163265 C14.9966888,3.64897959 14.766498,4.81469388 14.766498,5.99020408 C14.766498,10.2269388 17.7002069,13.8661224 21.7554839,14.875102 C20.4967808,19.0579592 16.5835364,22.0016327 12.0972637,22.0016327 Z" id="Shape"></path>
                        <circle id="Oval" cx="9" cy="7" r="1"></circle>
                        <circle id="Oval" cx="12" cy="11" r="1"></circle>
                        <circle id="Oval" cx="14" cy="16" r="1"></circle>
                        <circle id="Oval" cx="7" cy="14" r="1"></circle>
                    </g>
                    <g id="cookie" transform="translate(126.000000, 0.000000)">
                        <path d="M23.8027132,13.5036735 C23.6361921,13.2783673 23.3864106,13.1314286 23.1121406,13.0971429 C19.5025522,12.6514286 16.7843411,9.6 16.7843411,5.99020408 C16.7843411,4.78040816 17.0977925,3.58040816 17.6904115,2.52244898 C17.8275465,2.28244898 17.8520349,1.99346939 17.7687743,1.72897959 C17.6855138,1.4644898 17.4896067,1.24897959 17.2398252,1.13142857 C15.6186939,0.382040816 13.8898137,0 12.0972637,0 C5.42662678,0 0,5.38285714 0,12 C0,18.6171429 5.42662678,24 12.1021614,24 C17.8912163,24 22.8868474,19.9102041 23.9839272,14.277551 C24.032904,14.0081633 23.9692342,13.7289796 23.8027132,13.5036735 Z M12.0972637,22.0016327 C6.5383996,22.0016327 2.01294549,17.515102 2.01294549,12 C2.01294549,6.48489796 6.5383996,1.99836735 12.0972637,1.99836735 C13.2482179,1.99836735 14.3697861,2.18938776 15.4374798,2.56163265 C14.9966888,3.64897959 14.766498,4.81469388 14.766498,5.99020408 C14.766498,10.2269388 17.7002069,13.8661224 21.7554839,14.875102 C20.4967808,19.0579592 16.5835364,22.0016327 12.0972637,22.0016327 Z" id="Shape"></path>
                        <circle id="Oval" cx="9" cy="7" r="1"></circle>
                        <circle id="Oval" cx="12" cy="11" r="1"></circle>
                        <circle id="Oval" cx="14" cy="16" r="1"></circle>
                        <circle id="Oval" cx="7" cy="14" r="1"></circle>
                    </g>
                    <g id="cookie" transform="translate(157.000000, 0.000000)">
                        <path d="M23.8027132,13.5036735 C23.6361921,13.2783673 23.3864106,13.1314286 23.1121406,13.0971429 C19.5025522,12.6514286 16.7843411,9.6 16.7843411,5.99020408 C16.7843411,4.78040816 17.0977925,3.58040816 17.6904115,2.52244898 C17.8275465,2.28244898 17.8520349,1.99346939 17.7687743,1.72897959 C17.6855138,1.4644898 17.4896067,1.24897959 17.2398252,1.13142857 C15.6186939,0.382040816 13.8898137,0 12.0972637,0 C5.42662678,0 0,5.38285714 0,12 C0,18.6171429 5.42662678,24 12.1021614,24 C17.8912163,24 22.8868474,19.9102041 23.9839272,14.277551 C24.032904,14.0081633 23.9692342,13.7289796 23.8027132,13.5036735 Z M12.0972637,22.0016327 C6.5383996,22.0016327 2.01294549,17.515102 2.01294549,12 C2.01294549,6.48489796 6.5383996,1.99836735 12.0972637,1.99836735 C13.2482179,1.99836735 14.3697861,2.18938776 15.4374798,2.56163265 C14.9966888,3.64897959 14.766498,4.81469388 14.766498,5.99020408 C14.766498,10.2269388 17.7002069,13.8661224 21.7554839,14.875102 C20.4967808,19.0579592 16.5835364,22.0016327 12.0972637,22.0016327 Z" id="Shape"></path>
                        <circle id="Oval" cx="9" cy="7" r="1"></circle>
                        <circle id="Oval" cx="12" cy="11" r="1"></circle>
                        <circle id="Oval" cx="14" cy="16" r="1"></circle>
                        <circle id="Oval" cx="7" cy="14" r="1"></circle>
                    </g>
                </g>
                <g id="cookierow" transform="translate(169.500000, 44.000000) rotate(-270.000000) translate(-169.500000, -44.000000) translate(126.000000, 32.000000)">
                    <g id="cookie">
                        <path d="M23.8027132,13.5036735 C23.6361921,13.2783673 23.3864106,13.1314286 23.1121406,13.0971429 C19.5025522,12.6514286 16.7843411,9.6 16.7843411,5.99020408 C16.7843411,4.78040816 17.0977925,3.58040816 17.6904115,2.52244898 C17.8275465,2.28244898 17.8520349,1.99346939 17.7687743,1.72897959 C17.6855138,1.4644898 17.4896067,1.24897959 17.2398252,1.13142857 C15.6186939,0.382040816 13.8898137,0 12.0972637,0 C5.42662678,0 0,5.38285714 0,12 C0,18.6171429 5.42662678,24 12.1021614,24 C17.8912163,24 22.8868474,19.9102041 23.9839272,14.277551 C24.032904,14.0081633 23.9692342,13.7289796 23.8027132,13.5036735 Z M12.0972637,22.0016327 C6.5383996,22.0016327 2.01294549,17.515102 2.01294549,12 C2.01294549,6.48489796 6.5383996,1.99836735 12.0972637,1.99836735 C13.2482179,1.99836735 14.3697861,2.18938776 15.4374798,2.56163265 C14.9966888,3.64897959 14.766498,4.81469388 14.766498,5.99020408 C14.766498,10.2269388 17.7002069,13.8661224 21.7554839,14.875102 C20.4967808,19.0579592 16.5835364,22.0016327 12.0972637,22.0016327 Z" id="Shape"></path>
                        <circle id="Oval" cx="9" cy="7" r="1"></circle>
                        <circle id="Oval" cx="12" cy="11" r="1"></circle>
                        <circle id="Oval" cx="14" cy="16" r="1"></circle>
                        <circle id="Oval" cx="7" cy="14" r="1"></circle>
                    </g>
                    <g id="cookie" transform="translate(32.000000, 0.000000)">
                        <path d="M23.8027132,13.5036735 C23.6361921,13.2783673 23.3864106,13.1314286 23.1121406,13.0971429 C19.5025522,12.6514286 16.7843411,9.6 16.7843411,5.99020408 C16.7843411,4.78040816 17.0977925,3.58040816 17.6904115,2.52244898 C17.8275465,2.28244898 17.8520349,1.99346939 17.7687743,1.72897959 C17.6855138,1.4644898 17.4896067,1.24897959 17.2398252,1.13142857 C15.6186939,0.382040816 13.8898137,0 12.0972637,0 C5.42662678,0 0,5.38285714 0,12 C0,18.6171429 5.42662678,24 12.1021614,24 C17.8912163,24 22.8868474,19.9102041 23.9839272,14.277551 C24.032904,14.0081633 23.9692342,13.7289796 23.8027132,13.5036735 Z M12.0972637,22.0016327 C6.5383996,22.0016327 2.01294549,17.515102 2.01294549,12 C2.01294549,6.48489796 6.5383996,1.99836735 12.0972637,1.99836735 C13.2482179,1.99836735 14.3697861,2.18938776 15.4374798,2.56163265 C14.9966888,3.64897959 14.766498,4.81469388 14.766498,5.99020408 C14.766498,10.2269388 17.7002069,13.8661224 21.7554839,14.875102 C20.4967808,19.0579592 16.5835364,22.0016327 12.0972637,22.0016327 Z" id="Shape"></path>
                        <circle id="Oval" cx="9" cy="7" r="1"></circle>
                        <circle id="Oval" cx="12" cy="11" r="1"></circle>
                        <circle id="Oval" cx="14" cy="16" r="1"></circle>
                        <circle id="Oval" cx="7" cy="14" r="1"></circle>
                    </g>
                    <g id="cookie" transform="translate(63.000000, 0.000000)">
                        <path d="M23.8027132,13.5036735 C23.6361921,13.2783673 23.3864106,13.1314286 23.1121406,13.0971429 C19.5025522,12.6514286 16.7843411,9.6 16.7843411,5.99020408 C16.7843411,4.78040816 17.0977925,3.58040816 17.6904115,2.52244898 C17.8275465,2.28244898 17.8520349,1.99346939 17.7687743,1.72897959 C17.6855138,1.4644898 17.4896067,1.24897959 17.2398252,1.13142857 C15.6186939,0.382040816 13.8898137,0 12.0972637,0 C5.42662678,0 0,5.38285714 0,12 C0,18.6171429 5.42662678,24 12.1021614,24 C17.8912163,24 22.8868474,19.9102041 23.9839272,14.277551 C24.032904,14.0081633 23.9692342,13.7289796 23.8027132,13.5036735 Z M12.0972637,22.0016327 C6.5383996,22.0016327 2.01294549,17.515102 2.01294549,12 C2.01294549,6.48489796 6.5383996,1.99836735 12.0972637,1.99836735 C13.2482179,1.99836735 14.3697861,2.18938776 15.4374798,2.56163265 C14.9966888,3.64897959 14.766498,4.81469388 14.766498,5.99020408 C14.766498,10.2269388 17.7002069,13.8661224 21.7554839,14.875102 C20.4967808,19.0579592 16.5835364,22.0016327 12.0972637,22.0016327 Z" id="Shape"></path>
                        <circle id="Oval" cx="9" cy="7" r="1"></circle>
                        <circle id="Oval" cx="12" cy="11" r="1"></circle>
                        <circle id="Oval" cx="14" cy="16" r="1"></circle>
                        <circle id="Oval" cx="7" cy="14" r="1"></circle>
                    </g>
                </g>
                <g id="cookierow" transform="translate(201.500000, 60.000000) rotate(-270.000000) translate(-201.500000, -60.000000) translate(174.000000, 48.000000)">
                    <g id="cookie" transform="translate(-0.000000, 0.000000)">
                        <path d="M23.8027132,13.5036735 C23.6361921,13.2783673 23.3864106,13.1314286 23.1121406,13.0971429 C19.5025522,12.6514286 16.7843411,9.6 16.7843411,5.99020408 C16.7843411,4.78040816 17.0977925,3.58040816 17.6904115,2.52244898 C17.8275465,2.28244898 17.8520349,1.99346939 17.7687743,1.72897959 C17.6855138,1.4644898 17.4896067,1.24897959 17.2398252,1.13142857 C15.6186939,0.382040816 13.8898137,0 12.0972637,0 C5.42662678,0 0,5.38285714 0,12 C0,18.6171429 5.42662678,24 12.1021614,24 C17.8912163,24 22.8868474,19.9102041 23.9839272,14.277551 C24.032904,14.0081633 23.9692342,13.7289796 23.8027132,13.5036735 Z M12.0972637,22.0016327 C6.5383996,22.0016327 2.01294549,17.515102 2.01294549,12 C2.01294549,6.48489796 6.5383996,1.99836735 12.0972637,1.99836735 C13.2482179,1.99836735 14.3697861,2.18938776 15.4374798,2.56163265 C14.9966888,3.64897959 14.766498,4.81469388 14.766498,5.99020408 C14.766498,10.2269388 17.7002069,13.8661224 21.7554839,14.875102 C20.4967808,19.0579592 16.5835364,22.0016327 12.0972637,22.0016327 Z" id="Shape"></path>
                        <circle id="Oval" cx="9" cy="7" r="1"></circle>
                        <circle id="Oval" cx="12" cy="11" r="1"></circle>
                        <circle id="Oval" cx="14" cy="16" r="1"></circle>
                        <circle id="Oval" cx="7" cy="14" r="1"></circle>
                    </g>
                    <g id="cookie" transform="translate(31.000000, 0.000000)">
                        <path d="M23.8027132,13.5036735 C23.6361921,13.2783673 23.3864106,13.1314286 23.1121406,13.0971429 C19.5025522,12.6514286 16.7843411,9.6 16.7843411,5.99020408 C16.7843411,4.78040816 17.0977925,3.58040816 17.6904115,2.52244898 C17.8275465,2.28244898 17.8520349,1.99346939 17.7687743,1.72897959 C17.6855138,1.4644898 17.4896067,1.24897959 17.2398252,1.13142857 C15.6186939,0.382040816 13.8898137,0 12.0972637,0 C5.42662678,0 0,5.38285714 0,12 C0,18.6171429 5.42662678,24 12.1021614,24 C17.8912163,24 22.8868474,19.9102041 23.9839272,14.277551 C24.032904,14.0081633 23.9692342,13.7289796 23.8027132,13.5036735 Z M12.0972637,22.0016327 C6.5383996,22.0016327 2.01294549,17.515102 2.01294549,12 C2.01294549,6.48489796 6.5383996,1.99836735 12.0972637,1.99836735 C13.2482179,1.99836735 14.3697861,2.18938776 15.4374798,2.56163265 C14.9966888,3.64897959 14.766498,4.81469388 14.766498,5.99020408 C14.766498,10.2269388 17.7002069,13.8661224 21.7554839,14.875102 C20.4967808,19.0579592 16.5835364,22.0016327 12.0972637,22.0016327 Z" id="Shape"></path>
                        <circle id="Oval" cx="9" cy="7" r="1"></circle>
                        <circle id="Oval" cx="12" cy="11" r="1"></circle>
                        <circle id="Oval" cx="14" cy="16" r="1"></circle>
                        <circle id="Oval" cx="7" cy="14" r="1"></circle>
                    </g>
                </g>
            </g>
        </g>
    </g>
</svg>